<global>
amp_veltrack=0.0
ampeg_release=0.35
xfin_hicc1=24
xfin_locc1=0
xfout_hicc1=127
xfout_locc1=127

<group>
group_label=PP
lpc_hicc1=42
lpc_locc1=0

<region>
hikey=a#4
hivel=127
lokey=a4
loop_end=268927
loop_mode=loop_continuous
loop_start=101985
loop_xfade=20228
lovel=1
lpc=iMm7QcV3TMLoAQ9CEtUCwY1wzr887L5AS8+Pv1WahcAfKk9Amvu/wJwhw0B2tEPAQ4yGQIcLa8Dm8tY/nlp8v/isYT+zJFS/yzYoQFtMe8AcZgZABIwtvz8uC79RpqU/
lpc_rms=-30.51
offset=1393
pitch_keycenter=a#4
sample=Flute_trill_wholetone_PP_A#4.opus

<region>
hikey=a#5
hivel=127
lokey=a5
loop_end=269793
loop_mode=loop_continuous
loop_start=102313
loop_xfade=20294
lovel=1
lpc=cgrQQQKRPMJat+xB1IkmwdXbAUHvaBbABsPpPoUhmz9LhSvA8NTsPqxgjz8Klq0/mBYNQLfd27/gdABADo+PwHCkuUAM2jjAxjBbQH8hdsCs1oJAqmfpv8bqrcAtZsBA
lpc_rms=-22.12
offset=1094
pitch_keycenter=a#5
sample=Flute_trill_wholetone_PP_A#5.opus

<region>
hikey=a#6
hivel=127
lokey=a6
loop_end=276952
loop_mode=loop_continuous
loop_start=105028
loop_xfade=20832
lovel=1
lpc=w2OSQee3XcEtmn5AF9mfQKc467zxgdxABIV5QE+Rnz8at71A+86lQCZ+q0C7ZgbA1/+IwN6rE0Ghm9tA+TaqPxldTz/GvoxA8cE0PyArg7+tFr5AnTgUwPsroT5SQqtA
lpc_rms=-7.76
offset=6841
pitch_keycenter=A#6
sample=Flute_trill_wholetone_PP_A#6.opus

<region>
hikey=c5
hivel=127
lokey=b4
loop_end=272359
loop_mode=loop_continuous
loop_start=103286
loop_xfade=20487
lovel=1
lpc=8tHyQSDafsKlXBdCcWZ0wM0HFz+haeNA/mJ8wAA0rMBRAdQ+w0VVwHD64UChxoPADtMUQUjIB8GP4BJAJsq/vvsxWcDnC25AshC9PpSzmT/t/z6+vU67v/zFNcAXn11A
lpc_rms=-27.30
offset=2215
pitch_keycenter=c5
sample=Flute_trill_wholetone_PP_C5.opus

<region>
hikey=c6
hivel=127
lokey=b5
loop_end=268675
loop_mode=loop_continuous
loop_start=101889
loop_xfade=20209
lovel=1
lpc=eCutQfuwyMHnr78/5xB2QE74jkA0keI/3HLCPyCoPcD8Hr8/Vsn1P03Exz0zp0w/95+NQJ1X4b8909k/QmwMwCW8bkD0zww/gt6vQHS0Z8BwXorA2cPAP99oB0BC6DVA
lpc_rms=-23.15
offset=2719
pitch_keycenter=c6
sample=Flute_trill_wholetone_PP_C6.opus

<region>
hivel=127
key=d4
loop_end=273221
loop_mode=loop_continuous
loop_start=103614
loop_xfade=20551
lovel=1
lpc=KkpnQvY2AsPBt69C7Wedwd8BhEFlyY3BF5yNQcZAlME9US1BRkgewdbIT0DwH5pAvCEavwmz5L8zEYpAe/wFwdSnHEBTvnNAyJtSwNhzqkAmlpDAeuoXQP/lBcEywd5A
lpc_rms=-28.14
offset=524
sample=Flute_trill_wholetone_PP_D4.opus

<region>
hikey=d5
hivel=127
lokey=c#5
loop_end=266950
loop_mode=loop_continuous
loop_start=101235
loop_xfade=20080
lovel=1
lpc=y58aQppXnMKOzk9CWIKJwTwDJEFkjGPA20mmQAypssACyi5AzfttvzJBEsCt4R2/vq2pQECXrMBdjJlAEmK5wGxF+0BUGdi/hnEpQIPjssAYmAhAt9zuv8Q0cz56WCNA
lpc_rms=-23.99
offset=405
pitch_keycenter=d5
sample=Flute_trill_wholetone_PP_D5.opus

<region>
hikey=d6
hivel=127
lokey=c#6
loop_end=273776
loop_mode=loop_continuous
loop_start=103824
loop_xfade=20593
lovel=1
lpc=RxuHQdzIisGQ7g1A5uiJQIIgYMD7WrZAywDYPxhJCb9g6zZAsWXDv1Wym0AfogDAONBPQLA9tb9IpHhALlDaP/aKuT9R3RzAnv0CvKT0mT8TVz++/K8rQHzv+z88k3G/
lpc_rms=-21.25
offset=1626
pitch_keycenter=d6
sample=Flute_trill_wholetone_PP_D6.opus

<region>
hikey=e4
hivel=127
lokey=d#4
loop_end=269883
loop_mode=loop_continuous
loop_start=102348
loop_xfade=20300
lovel=1
lpc=d49uQg8fFMOwu+VC4vXTwfVoEUEZLVTBuBBTQdGnM8Fm6Oc/3gYEwBD2Jj/PqKRAKzluv8JnJsCO1iw9bY4swP0LukBBKKO/xoYqwAqzBkB+ndA/qNIFQKaZMcEmquBA
lpc_rms=-28.35
pitch_keycenter=e4
sample=Flute_trill_wholetone_PP_E4.opus

<region>
hikey=e5
hivel=127
lokey=d#5
loop_end=265418
loop_mode=loop_continuous
loop_start=100654
loop_xfade=19964
lovel=1
lpc=KPAQQsl9aMKEq31BBYIBQb6FGsAFJA9BhxSOQA3OPMFXy2RAsu77wJpdqkBwq0+/dDAUQdQ04MB3V8A/30U1v6s1MkCsHXq/0KLvPhT/0r9H48A+t4Bgvya1TUAODhq/
lpc_rms=-21.73
offset=3368
pitch_keycenter=e5
sample=Flute_trill_wholetone_PP_E5.opus

<region>
hikey=e6
hivel=127
lokey=d#6
loop_end=271108
loop_mode=loop_continuous
loop_start=102812
loop_xfade=20392
lovel=1
lpc=Ja+gQW+yTMHbwhTBatOzQOT2MkBKKCJAG0Q9QIbcvL/Q6JU/6HNoQItsHz9OtSHAf82mPxg+gz7+uKI/YEWmP5XBBsBb35vAicfuv4cUSEDIsatA/TSyP9IwesAY64nA
lpc_rms=-24.02
offset=2026
pitch_keycenter=e6
sample=Flute_trill_wholetone_PP_E6.opus

<region>
hikey=f#4
hivel=127
lokey=f4
loop_end=267745
loop_mode=loop_continuous
loop_start=101537
loop_xfade=20139
lovel=1
lpc=retYQoqJBcMET9hC/vX1weivnUCwjl296t2EQG4pYcGIUjNBp10wwSKdR0Eox6LAGjLSP5VBpMDcVsNAQwwBwYM1BkGa8QPA186GP4po+7/VoKY+lztawIQrhUA1R/y+
lpc_rms=-26.90
offset=1216
pitch_keycenter=f#4
sample=Flute_trill_wholetone_PP_F#4.opus

<region>
hikey=f#5
hivel=127
lokey=f5
loop_end=281389
loop_mode=loop_continuous
loop_start=106711
loop_xfade=21166
lovel=1
lpc=mWYiQsMKm8Iw2SNCeFruwCryRUEheHnAnQfzP81++cCNwLM/wDqdP0Y13T+GZok+aiULv7u6KkB7bO+/ydHXwEUSHEEggpzA4wm1QNoygsA1eRy/gc47vRNfgEAV1DrA
lpc_rms=-22.47
offset=16395
pitch_keycenter=f#5
sample=Flute_trill_wholetone_PP_F#5.opus

<region>
hikey=f#6
hivel=127
lokey=f6
loop_end=275453
loop_mode=loop_continuous
loop_start=104460
loop_xfade=20719
lovel=1
lpc=TnCqQVWNc8H8HsPA4ITjQKw2gcDQKPxA7vKSQNjqmcCbFqxAQpNzwJP1CEBijGu/pzk/QMgxr7+knibAgveUwOZOhMCcsNJATJcaQCCUqb+IVsm/DRScwCLSP7/MGsi+
lpc_rms=-21.49
offset=16580
pitch_keycenter=f#6
sample=Flute_trill_wholetone_PP_F#6.opus

<region>
hikey=g#4
hivel=127
lokey=g4
loop_end=270151
loop_mode=loop_continuous
loop_start=102449
loop_xfade=20320
lovel=1
lpc=Jkg3Qm9xzcISIpVCun/PwZzUk0EErhnBJjjtQH1ONMGt6aRAnBq6wKYRbEC4LhNAwrOBPwVKeb+Lequ/EY3tPEDt5r5sMpO+8uKLQN1arMDnQbpAzJxewF3SicBhPZ1A
lpc_rms=-27.13
offset=1986
pitch_keycenter=g#4
sample=Flute_trill_wholetone_PP_G#4.opus

<region>
hikey=g#5
hivel=127
lokey=g5
loop_end=274853
loop_mode=loop_continuous
loop_start=104232
loop_xfade=20674
lovel=1
lpc=anrwQQCAWcJeVcxBjJK1vqBRBD88DflA87eAwH5MNMBpOYm/7tVBwG3NiUAyaihAIDhNQOajosA6tAZARL9QwGCn6r/JKrxA8y0VQFIiMMCDRf0/HmeWwFFTmb/FFWRA
lpc_rms=-22.17
offset=1827
pitch_keycenter=g#5
sample=Flute_trill_wholetone_PP_G#5.opus

<region>
hikey=g#6
hivel=127
lokey=g6
loop_end=278923
loop_mode=loop_continuous
loop_start=105776
loop_xfade=20980
lovel=1
lpc=8iXGQSZPlsH7WOjAuZcQQRc+Zj9FMhNB3TBFQKkyJ0AQYLhAlF/mwNraEUFW1Ik/ch7SQME2F8DIL47A398jQbmdL0HfUp09jXxXvqVTYMDnnoA/cAmePg8BnUDJ3yRA
lpc_rms=-16.04
offset=5142
pitch_keycenter=g#6
sample=Flute_trill_wholetone_PP_G#6.opus

<group>
group_label=MF
lpc_hicc1=84
lpc_locc1=43
new_opcode_1=value
new_opcode_2=value

<region>
hikey=a#4
hivel=127
lokey=a4
loop_end=273167
loop_mode=loop_continuous
loop_start=103593
loop_xfade=20547
lovel=1
lpc=2y/xQay6nsJgSppCEDcewjy0s0GtChHBuZcmwNRT1b/WCTZAd3Qyvv8NikDrqOTAF+7OQJ7IpsAWU5BAiZkIwH9wUr8akAk/q+mkP3nfGsAF5OQ/kMdUQHDp6cDSE4RA
lpc_rms=-19.75
offset=462
pitch_keycenter=a#4
sample=Flute_trill_wholetone_MF_A#4.opus

<region>
hikey=a#5
hivel=127
lokey=a5
loop_end=277256
loop_mode=loop_continuous
loop_start=105143
loop_xfade=20855
lovel=1
lpc=RrTTQXclMcKzwMpBj1CowNtRX7/rNBNBtQyowMvcL77ICgdAB9L0v70PlEBHFU8/0mSJP1x7b8DDCx1Amt6IP5RhKUCDzA6/IbQGQIlke8AAgbBAgYMxvcBoKsE+4R9B
lpc_rms=-14.34
offset=957
pitch_keycenter=a#5
sample=Flute_trill_wholetone_MF_A#5.opus

<region>
hikey=a#6
hivel=127
lokey=a6
loop_end=276952
loop_mode=loop_continuous
loop_start=105028
loop_xfade=20832
lovel=1
lpc=w2OSQee3XcEtmn5AF9mfQKc467zxgdxABIV5QE+Rnz8at71A+86lQCZ+q0C7ZgbA1/+IwN6rE0Ghm9tA+TaqPxldTz/GvoxA8cE0PyArg7+tFr5AnTgUwPsroT5SQqtA
lpc_rms=-7.76
offset=6841
pitch_keycenter=A#6
sample=Flute_trill_wholetone_MF_A#6.opus

<region>
hikey=c5
hivel=127
lokey=b4
loop_end=282295
loop_mode=loop_continuous
loop_start=107054
loop_xfade=21234
lovel=1
lpc=d7HoQZcGl8L5xo5Crrv7wWNEN0FWzbY/6tMywWGznkDvY9m+xqgRQDxugj9JmVbAcUIHQPRjU8AKDvBA67zFwKBnmz/sPAbAVwiFQJtSFMCpC8c/DOOWPxO/osCEfl5A
lpc_rms=-19.27
offset=9613
pitch_keycenter=c5
sample=Flute_trill_wholetone_MF_C5.opus

<region>
hikey=c6
hivel=127
lokey=b5
loop_end=272138
loop_mode=loop_continuous
loop_start=103203
loop_xfade=20470
lovel=1
lpc=ou6+QXud2sEVUY1AiJ8JQbhw5sBzJSFBGit1v9QJh8DjULNAETdgwDORHUE/0uS/tTYnQBzzF8DMoQJAVn2UQIPgXsCJbqJA0DGMP0T58L9GgVnARCFNQL612D/GvShA
lpc_rms=-15.26
offset=817
pitch_keycenter=c6
sample=Flute_trill_wholetone_MF_C6.opus

<region>
hivel=127
key=d4
loop_end=266996
loop_mode=loop_continuous
loop_start=101253
loop_xfade=20083
lovel=1
lpc=xQw7QrEZ/sLhqQNDbRySwkOqzkGY46Q/o4QsP1w/UsF5/lxBmKWBwXdjYkGjRbLAcVVlQNA9zcAbmzZBdMpxwfQ5hEHyVUfBxiWsQImqFsAWupo/AWEIP6L9HsBMU9k/
lpc_rms=-21.96
offset=1879
sample=Flute_trill_wholetone_MF_D4.opus

<region>
hikey=d5
hivel=127
lokey=c#5
loop_end=266735
loop_mode=loop_continuous
loop_start=101154
loop_xfade=20063
lovel=1
lpc=/p7NQaVjTcJT2xVChQ+KwZEKvUBNNtxABCqZwJ+YJ7+1OQpAccK8wMvd9EA0p9HA1UP2QCef/cCsToNAKRO/v8Oxuz+amDdABMRxvtHLF8Dku6o+jUfEv+d0Gz+p+v4/
lpc_rms=-21.66
offset=3042
pitch_keycenter=d5
sample=Flute_trill_wholetone_MF_D5.opus

<region>
hikey=d6
hivel=127
lokey=c#6
loop_end=274147
loop_mode=loop_continuous
loop_start=103965
loop_xfade=20621
lovel=1
lpc=PKFrQZVXeMGIQoxAo+hLQPXRUMDNxJJAJ296v31PXUDaFDVAfH54vnn5rT+Ugp2/eLZVQIaT8D4pNUtAIyuyP7rsvj/HROq/wTeJPtkiUz873+a9QLndPwehGkCGdre+
lpc_rms=-16.43
offset=1528
pitch_keycenter=d6
sample=Flute_trill_wholetone_MF_D6.opus

<region>
hikey=e4
hivel=127
lokey=d#4
loop_end=271310
loop_mode=loop_continuous
loop_start=102889
loop_xfade=20408
lovel=1
lpc=zoMOQmo7w8LNfspClFJSwqdqYkG5XddACUqMwMTLC8HYPwxBJl0ZwfFxUUFlMkTB9daGQRrljcERkE1BrO08wUFV4UADDJU/2K1hwLTLGEB8uSFA438BwXWMwUBYjaS/
lpc_rms=-20.16
offset=1274
pitch_keycenter=e4
sample=Flute_trill_wholetone_MF_E4.opus

<region>
hikey=e5
hivel=127
lokey=d#5
loop_end=272105
loop_mode=loop_continuous
loop_start=103190
loop_xfade=20467
lovel=1
lpc=fEuRQdjZF8JzuwFCCZ5qwfbYNj8yLuxAEr+nwJ8Eqz9lpxxA5WODwEUyTUCYBRXApccsQANOo8CHs/xAWzlzwPYkcr+0IYxAc3QxwAqVNMBM0q5AUes2wDmeCb5uudY/
lpc_rms=-21.28
offset=3125
pitch_keycenter=e5
sample=Flute_trill_wholetone_MF_E5.opus

<region>
hikey=e6
hivel=127
lokey=d#6
loop_end=271994
loop_mode=loop_continuous
loop_start=103148
loop_xfade=20459
lovel=1
lpc=ffihQUlfdsEX9pRA0LHJQLzZ8b/PvRpAsKJhQKpDuEDfGLtA+oCsQJhSjz+MGro/o7/pQDHEgkDc2Q5Ad9lTQMaxzD/QLdI/ltkhP0b4gkB+Vss/BWrsvdfHvEAHGATA
lpc_rms=-12.66
offset=581
pitch_keycenter=e6
sample=Flute_trill_wholetone_MF_E6.opus

<region>
hikey=f#4
hivel=127
lokey=f4
loop_end=273190
loop_mode=loop_continuous
loop_start=103602
loop_xfade=20549
lovel=1
lpc=MykqQj0o7sK9ff9C+uaWwjZCA0IKVsI/4IiNwTK7N0Hq1IXAoXiswGGmNkGU7QTBzjfDQLrbyMDbCQFBqvfpwP/mI0BeoAdAokOdwK2cyD9C0ENA5SshQLx+EMEcxplA
lpc_rms=-19.83
offset=3846
pitch_keycenter=f#4
sample=Flute_trill_wholetone_MF_F#4.opus

<region>
hikey=f#5
hivel=127
lokey=f5
loop_end=280390
loop_mode=loop_continuous
loop_start=106332
loop_xfade=21091
lovel=1
lpc=tnrmQVQVdsIHYVFCQybIwegyPUFnzn3AwB8VQNTPX8CH2ZJAeNtcwDFBgT9qef4+LLk4QK3oNcA8NGBAMriuwEcDvUBOc07Aw4eTQEN6wsBV+a1AKum1wHbu5UCpHjLA
lpc_rms=-16.21
offset=8493
pitch_keycenter=f#5
sample=Flute_trill_wholetone_MF_F#5.opus

<region>
hikey=f#6
hivel=127
lokey=f6
loop_end=270909
loop_mode=loop_continuous
loop_start=102736
loop_xfade=20378
lovel=1
lpc=sQyFQYs4X8GwsXVAI5yXQL896b8D/6+/CIGHQDFasUDVXhpA0sYBvz1/5j+wEn8/WVYbQIQwJr6yPdO/GPE/wDsLSkCTVOE+/NGAv/cDlD/aChhAinsEwMV/cMA1sYq+
lpc_rms=-12.34
offset=976
pitch_keycenter=f#6
sample=Flute_trill_wholetone_MF_F#6.opus

<region>
hikey=g#4
hivel=127
lokey=g4
loop_end=269216
loop_mode=loop_continuous
loop_start=102094
loop_xfade=20250
lovel=1
lpc=il4vQsvf+8LYMAhD8qeRwnRf10EwJjjAQEkOwfY2+T8pvXhA+QUBwcMkU0FmZRbB1lCrQNiTUMCp9G+/wxMKPsrGoUBtUgHBykEUQcLEC8EPEsNAa2grP3DB18CGQ4VA
lpc_rms=-19.81
offset=1419
pitch_keycenter=g#4
sample=Flute_trill_wholetone_MF_G#4.opus

<region>
hikey=g#5
hivel=127
lokey=g5
loop_end=270990
loop_mode=loop_continuous
loop_start=102767
loop_xfade=20384
lovel=1
lpc=a4GaQbtAGMKz0elBQEpOwb+9sEDE0Mo/WLw0wNq5FEBZPOe/lX3Uv201K0DgrWo++rItQL8UGMBpHWo/H499wNWMnkDPIBbAcDNqQE43KcCgegNAouj6v4c5Bj96QVo+
lpc_rms=-19.48
offset=1304
pitch_keycenter=g#5
sample=Flute_trill_wholetone_MF_G#5.opus

<region>
hikey=g#6
hivel=127
lokey=g6
loop_end=279478
loop_mode=loop_continuous
loop_start=105986
loop_xfade=21022
lovel=1
lpc=CLPYQdufi8Grv5hAQa5GQPZCpD/g3T9AdlEmQWYbJkGFaDa+aiC+PkZ6tEBxeKhAh52mP4YoZsDh15jA5lf8QG4pUkAZGx6/e2fOQJlMs8CWNcHAhzGtv9vVeUCshFO9
lpc_rms=-9.69
offset=757
pitch_keycenter=g#6
sample=Flute_trill_wholetone_MF_G#6.opus

<group>
group_label=FF
lpc_hicc1=127
lpc_locc1=85
new_opcode_1=value
new_opcode_2=value

<region>
hikey=a#4
hivel=127
lokey=a4
loop_end=276771
loop_mode=loop_continuous
loop_start=104960
loop_xfade=20818
lovel=1
lpc=HPK8QfG/asI13FJC8t2zwQ1vEEG1Bdo+E5TnwJyZEEA1Vm8/3aQHwMYZ50BHROrAb82cQLPilMBg1YdATuITwP157j4B1ho/H8I3P3rHTcA6wTpA8DYXv18Zyb/8q7w/
lpc_rms=-15.50
offset=1095
pitch_keycenter=a#4
sample=Flute_trill_wholetone_FF_A#4.opus

<region>
hikey=a#5
hivel=127
lokey=a5
loop_end=280304
loop_mode=loop_continuous
loop_start=106299
loop_xfade=21084
lovel=1
lpc=Z3SPQchY9sFUJodBOClhv1D+Tr9UBZdAJzigwEpG8T+aAIs/KRklvxFAIECBAYW+O5LgPy0CEMANy4A/UvOJPyrVcD+33Vk/QglgP1PQGMBFixZAxBYmP72YmsCm+plA
lpc_rms=-12.12
offset=2711
pitch_keycenter=a#5
sample=Flute_trill_wholetone_FF_A#5.opus

<region>
hikey=a#6
hivel=127
lokey=a6
loop_end=270547
loop_mode=loop_continuous
loop_start=102599
loop_xfade=20350
lovel=1
lpc=o0qNQR1ui8H64g1BgkWGP3XJXj4RedxAzcnxPwDWjUBW7S1AJUgLQIXTyEB0zyu/Z0ZwwGjaAkFfSeJAzgbYvuiocEBY9qI/sI47P8S9zj4LHmVAWqexPz6Tl78mzHNA
lpc_rms=-11.22
offset=1166
pitch_keycenter=A#6
sample=Flute_trill_wholetone_FF_A#6.opus

<region>
hikey=c5
hivel=127
lokey=b4
loop_end=281452
loop_mode=loop_continuous
loop_start=106735
loop_xfade=21170
lovel=1
lpc=pjOJQc3+KMI7BhhCzQNgwTEpFkA1Yyc/nyLrvzit0r3iTAtAqJCYwFE5BEEkGvrAKg+qQGbJisALH5hAx1ZAwDIbdT6gsw4/C3xwv4rvnD6X0kpA7H8hwO896r/u+wxA
lpc_rms=-19.10
offset=1904
pitch_keycenter=c5
sample=Flute_trill_wholetone_FF_C5.opus

<region>
hikey=c6
hivel=127
lokey=b5
loop_end=277328
loop_mode=loop_continuous
loop_start=105171
loop_xfade=20860
lovel=1
lpc=ohJeQaiDlcGlnfRAJ73yP49vHMBsHHFAhC6Cv4KwCkDU/42/S3jyvkuKakAFoXY/t8zWPpuINsANO5RAM1jHvzr3EUDeKAS/pD4lQGBtlr/pYjy/mtXWPz4UcMB/WY5A
lpc_rms=-16.14
offset=547
pitch_keycenter=c6
sample=Flute_trill_wholetone_FF_C6.opus

<region>
hivel=127
key=d4
loop_end=277477
loop_mode=loop_continuous
loop_start=105227
loop_xfade=20872
lovel=1
lpc=d13jQQ9sksJy0otCZzUDwoFvgUBcWk5BWmPGwAju4cDQIutAKegxwUUASkEknprA5YONQCk17cAR/t9Ah5MKwQX/CEEdhVbAUaTlPoIF8b/VRkhAlHEDwN2cW759i0U/
lpc_rms=-19.59
offset=2243
sample=Flute_trill_wholetone_FF_D4.opus

<region>
hikey=d5
hivel=127
lokey=c#5
loop_end=276608
loop_mode=loop_continuous
loop_start=104898
loop_xfade=20806
lovel=1
lpc=Qv42QVZnpcHDWSxBONcIvwJWdr5p4BpA0wUlwGm7Sj9zIuS9IShjv8v48D8w55m/mhi7P6DfTMC1A3pA4LsMwJGbez8itYE6jXV/PxkWpb93FxI/2rQavxaOvL2FDY4/
lpc_rms=-22.82
offset=1379
pitch_keycenter=d5
sample=Flute_trill_wholetone_FF_D5.opus

<region>
hikey=d6
hivel=127
lokey=c#6
loop_end=270420
loop_mode=loop_continuous
loop_start=102551
loop_xfade=20341
lovel=1
lpc=vritQRaxBMIbVZZBjuFLPcwaw7/FYpxAKsOGwEFV+z+s869Aivvxvebh7D8BzFW/62K2QBCn4b+0kYo/rClIQPvJ7T8WzLq/c1yYwIa6MkHZCPvAP8HIQDW5jb+Q9n0/
lpc_rms=-9.37
offset=365
pitch_keycenter=d6
sample=Flute_trill_wholetone_FF_D6.opus

<region>
hikey=e4
hivel=127
lokey=d#4
loop_end=274106
loop_mode=loop_continuous
loop_start=103949
loop_xfade=20618
lovel=1
lpc=EMfMQd0Pg8IXtHdCaywFwqrfpUH/aSHBJGRtQOkB1sBkxsdAubK4wCvxy0AQFqHAP8WZQFoRYsDP/ztAp9+HwAtlikAKzTnANIM4P+WTS782bP0/UYxPP+ysHcC8bEM/
lpc_rms=-19.89
offset=2100
pitch_keycenter=e4
sample=Flute_trill_wholetone_FF_E4.opus

<region>
hikey=e5
hivel=127
lokey=d#5
loop_end=282772
loop_mode=loop_continuous
loop_start=107235
loop_xfade=21270
lovel=1
lpc=wOqAQbKx/MEsprxB5Z/rwHw5BkCOc6K+7bI1v4wHaT8Lo6o+R4uFvugWoD9UNCfAeGOhP1Yxgj+xSMG9vKeJP7MUt79D9DtASdM1wFAExj925u4+/7jJvbauib+BPb8/
lpc_rms=-18.14
offset=4392
pitch_keycenter=e5
sample=Flute_trill_wholetone_FF_E5.opus

<region>
hikey=e6
hivel=127
lokey=d#6
loop_end=284206
loop_mode=loop_continuous
loop_start=107779
loop_xfade=21378
lovel=1
lpc=9zSBQSJrhcHAxRtB/24cQLJtdz+0NX1A1HqMPqoXwkBBXdQ/I8efQCVCqkAet0o/9y2cQJ+0nEDlL7hACS9Jv0OzC0AyLGlA6tmQP2GeeEBjpoy+YVIoQJF9lD+y+Q5A
lpc_rms=-9.10
offset=3842
pitch_keycenter=e6
sample=Flute_trill_wholetone_FF_E6.opus

<region>
hikey=f#4
hivel=127
lokey=f4
loop_end=271729
loop_mode=loop_continuous
loop_start=103048
loop_xfade=20439
lovel=1
lpc=annjQV33kMKeAYVCOqrzwYulWEFonEHAp9jiv6y5XMCEtppA7J/AwOhWFUE9JAPBwXT7QM42G8F8ZCJBRQcGweVNs0Cv9WnAJ81lQJQDpcDgkLFAFdcWwEpbcb9icGA/
lpc_rms=-18.47
offset=1329
pitch_keycenter=f#4
sample=Flute_trill_wholetone_FF_F#4.opus

<region>
hikey=f#5
hivel=127
lokey=f5
loop_end=279672
loop_mode=loop_continuous
loop_start=106060
loop_xfade=21037
lovel=1
lpc=hfx7QfkL38FOXYNBAWqCvw0dor/9Ebg/XAN/v4HItD1MDxdAb8lWvikywr/rOu6/LAJWQDObA780ohtAUNLUvyu8vT+1d/q/HIG7P+v6u77iCEQ/lD25v3KrXkDwYqq/
lpc_rms=-15.28
offset=14518
pitch_keycenter=f#5
sample=Flute_trill_wholetone_FF_F#5.opus

<region>
hikey=f#6
hivel=127
lokey=f6
loop_end=281987
loop_mode=loop_continuous
loop_start=106938
loop_xfade=21211
lovel=1
lpc=DenxQXo+48Er02dBQb0WwKJLPL1BS11AbmeuQHHxcEA/OwRB+daXwEqcqkDfS+2/STWRQEzzjD8HpRnACXozwTmBokDXfdw/c5sRwH8hIkBHxwFAvZLHwGG7LcARhFXA
lpc_rms=-7.30
offset=13738
pitch_keycenter=f#6
sample=Flute_trill_wholetone_FF_F#6.opus

<region>
hikey=g#4
hivel=127
lokey=g4
loop_end=279208
loop_mode=loop_continuous
loop_start=105884
loop_xfade=21002
lovel=1
lpc=WQHbQY0visL63XtCMJPowVJVZ0FHWoTADhgnwDeqnr+ATPw/GlWGwLqDEUGliQXBdw4LQXSF+sDf0XtABO8SwPqxaUAepdnA91HpQE0zjsBkOWRA5LO2uwL9y8CIcZJA
lpc_rms=-16.52
offset=4385
pitch_keycenter=g#4
sample=Flute_trill_wholetone_FF_G#4.opus

<region>
hikey=g#5
hivel=127
lokey=g5
loop_end=279161
loop_mode=loop_continuous
loop_start=105866
loop_xfade=20998
lovel=1
lpc=4EWZQVJVAsLOLZtBuF4xwAjGtb/ty6ZAAlWZwGSEMkAPK+y/V146Ps/xgUDzGDjA1h4MQE7OMcBWiLFAm1+VwN9Z+T9UzEq/9RZPQK6rJ8Cd+fc/5EF2PjZQnL8WtyE9
lpc_rms=-11.73
offset=4907
pitch_keycenter=g#5
sample=Flute_trill_wholetone_FF_G#5.opus

<region>
hikey=g#6
hivel=127
lokey=g6
loop_end=274652
loop_mode=loop_continuous
loop_start=104156
loop_xfade=20659
lovel=1
lpc=EOXXQVkwpsFW7DpBNS2OQGthPEB+KbdAgMMDQaStMEGIg3G+RPETQUWe3kDJxalAZJzNQL3CqsCQObg/MZ2/QPmYlEBKKjTAV62SQFZrGL9qZ+HAFsteQKd06jqifCbA
lpc_rms=-8.74
offset=455
pitch_keycenter=g#6
sample=Flute_trill_wholetone_FF_G#6.opus

